<?xml version="1.0" encoding="UTF-8"?>
<svg width="494px" height="118px" viewBox="0 0 494 118" version="1.1" xmlns="http://www.w3.org/2000/svg" xmlns:xlink="http://www.w3.org/1999/xlink">
    <title>TGWF-logo</title>
    <g id="Page-1" stroke="none" stroke-width="1" fill="none" fill-rule="evenodd">
        <g id="TGWF-logo" transform="translate(0.790000, 0.710000)" fill-rule="nonzero">
            <g id="Group" transform="translate(146.330000, 8.200000)" fill="#000000">
                <path d="M29.99,25.73 L16.7,25.73 L16.7,21.29 L34.98,21.29 L34.98,43.2 L30.32,43.2 L30.32,34.13 L30.21,34.13 C28.62,38.94 24.65,43.82 17.83,43.82 C6.99,43.82 -2.84217094e-14,34.07 -2.84217094e-14,21.91 C-2.84217094e-14,9.75 6.7,0 18.06,0 C27.88,0 33.56,6.97 34.58,14.32 L29.53,14.32 C28.74,9.26 25.33,4.45 18.4,4.45 C9.88,4.45 5.28,11.73 5.28,21.91 C5.28,32.09 10.05,39.37 18.57,39.37 C26.06,39.37 29.98,34 29.98,27.52 L29.98,25.73 L29.99,25.73 L29.99,25.73 Z M43.82,0.61 L55.97,0.61 C65.45,0.61 71.02,4.99 71.02,12.89 C71.02,18.94 67.78,22.95 61.99,24.49 L71.76,43.19 L66.14,43.19 L56.77,25.23 L48.71,25.23 L48.71,43.19 L43.83,43.19 L43.83,0.61 L43.82,0.61 L43.82,0.61 Z M48.7,5.05 L48.7,20.79 L56.54,20.79 C62.62,20.79 65.74,18.01 65.74,12.89 C65.74,7.77 62.62,5.05 56.54,5.05 L48.7,5.05 L48.7,5.05 Z M78.91,0.61 L101.45,0.61 L101.45,5.05 L83.79,5.05 L83.79,19.12 L100.94,19.12 L100.94,23.56 L83.79,23.56 L83.79,38.74 L101.9,38.74 L101.9,43.18 L78.9,43.18 L78.9,0.61 L78.91,0.61 Z M109.23,0.61 L131.77,0.61 L131.77,5.05 L114.11,5.05 L114.11,19.12 L131.26,19.12 L131.26,23.56 L114.11,23.56 L114.11,38.74 L132.22,38.74 L132.22,43.18 L109.22,43.18 L109.22,0.61 L109.23,0.61 Z M170.21,43.19 L160.16,43.19 L144.43,0.86 L144.43,43.19 L139.55,43.19 L139.55,0.61 L149.6,0.61 L165.33,42.94 L165.33,0.61 L170.21,0.61 L170.21,43.19 Z M226.98,0.61 L234.42,42.94 L243.62,0.61 L248.45,0.61 L239.2,43.19 L229.66,43.19 L222.22,0.86 L214.78,43.19 L205.24,43.19 L195.99,0.61 L200.82,0.61 L210.02,42.94 L217.46,0.61 L227,0.61 L226.98,0.61 Z M254.54,0.61 L277.08,0.61 L277.08,5.05 L259.42,5.05 L259.42,19.12 L276.57,19.12 L276.57,23.56 L259.42,23.56 L259.42,38.74 L277.53,38.74 L277.53,43.18 L254.53,43.18 L254.53,0.61 L254.54,0.61 Z M303.32,20.98 L303.32,21.1 C309.68,21.66 312.23,25.67 312.23,31.03 C312.23,38.81 307.69,43.19 298.21,43.19 L284.87,43.19 L284.87,0.61 L296.11,0.61 C305.59,0.61 310.36,4.19 310.36,11.9 C310.36,16.9 307.29,19.98 303.32,20.97 L303.32,20.98 L303.32,20.98 Z M289.75,5.06 L289.75,18.94 L295.88,18.94 C301.96,18.94 305.08,16.6 305.08,11.91 C305.08,7.22 302.75,5.06 296.68,5.06 L289.75,5.06 Z M289.75,23.39 L289.75,38.76 L298.78,38.76 C304.86,38.76 306.96,35.86 306.96,31.05 C306.96,26.24 303.84,23.4 297.76,23.4 L289.75,23.4 L289.75,23.39 Z M2.4,65.1 L27.04,65.1 L27.04,69.54 L7.28,69.54 L7.28,83.98 L26.7,83.98 L26.7,88.42 L7.28,88.42 L7.28,107.67 L2.4,107.67 L2.4,65.09 L2.4,65.1 Z M32.13,86.39 C32.13,74.23 39.57,64.48 50.41,64.48 C61.25,64.48 68.69,74.23 68.69,86.39 C68.69,98.55 61.25,108.3 50.41,108.3 C39.57,108.3 32.13,98.55 32.13,86.39 Z M63.41,86.39 C63.41,76.21 58.19,68.93 50.41,68.93 C42.63,68.93 37.41,76.21 37.41,86.39 C37.41,96.57 42.63,103.85 50.41,103.85 C58.19,103.85 63.41,96.57 63.41,86.39 L63.41,86.39 Z M100.01,65.1 L104.89,65.1 L104.89,90.71 C104.89,102.8 99.5,108.3 90.41,108.3 C81.32,108.3 75.93,102.81 75.93,90.71 L75.93,65.1 L80.81,65.1 L80.81,91.63 C80.81,99.04 83.59,103.85 90.41,103.85 C97.23,103.85 100.01,99.04 100.01,91.63 L100.01,65.1 Z M145.15,107.68 L135.1,107.68 L119.37,65.35 L119.37,107.68 L114.49,107.68 L114.49,65.1 L124.54,65.1 L140.27,107.43 L140.27,65.1 L145.15,65.1 L145.15,107.68 Z M155.04,65.1 L166.34,65.1 C178.83,65.1 186.33,73.86 186.33,86.39 C186.33,98.92 178.84,107.68 166.34,107.68 L155.04,107.68 L155.04,65.1 Z M159.92,69.54 L159.92,103.23 L165.77,103.23 C175.42,103.23 181.04,97.31 181.04,86.38 C181.04,75.45 175.42,69.53 165.77,69.53 L159.92,69.53 L159.92,69.54 Z M201.31,65.1 L211.42,65.1 L224.65,107.68 L219.48,107.68 L215.51,94.85 L197.23,94.85 L193.26,107.68 L188.09,107.68 L201.32,65.1 L201.31,65.1 Z M198.58,90.4 L214.14,90.4 L206.36,65.35 L198.58,90.4 L198.58,90.4 Z M221.73,65.1 L252.96,65.1 L252.96,69.54 L239.79,69.54 L239.79,107.67 L234.91,107.67 L234.91,69.54 L221.74,69.54 L221.74,65.1 L221.73,65.1 Z M258.46,107.68 L258.46,65.1 L263.34,65.1 L263.34,107.68 L258.46,107.68 Z M271,86.39 C271,74.23 278.44,64.48 289.28,64.48 C300.12,64.48 307.56,74.23 307.56,86.39 C307.56,98.55 300.12,108.3 289.28,108.3 C278.44,108.3 271,98.55 271,86.39 Z M302.28,86.39 C302.28,76.21 297.06,68.93 289.28,68.93 C281.5,68.93 276.28,76.21 276.28,86.39 C276.28,96.57 281.5,103.85 289.28,103.85 C297.06,103.85 302.28,96.57 302.28,86.39 L302.28,86.39 Z M345.89,107.68 L335.84,107.68 L320.11,65.35 L320.11,107.68 L315.23,107.68 L315.23,65.1 L325.28,65.1 L341.01,107.43 L341.01,65.1 L345.89,65.1 L345.89,107.68 Z" id="Shape"></path>
            </g>
            <path d="M1.83,63.14 L1.83,64.73 C1.83,93.15 24.95,116.26 53.36,116.26 C81.77,116.26 104.89,93.14 104.89,64.73 L104.89,63.14 L1.83,63.14 Z" id="Path" fill="#FFFFFF"></path>
            <path d="M7.10542736e-15,62.2 L7.10542736e-15,63.84 C7.10542736e-15,93.15 23.84,116.99 53.15,116.99 C82.46,116.99 106.3,93.15 106.3,63.84 L106.3,62.2 L7.10542736e-15,62.2 L7.10542736e-15,62.2 Z M51.51,90.37 L51.51,113.51 C45.4,112.15 37.99,103.51 33.4,90.37 L51.51,90.37 Z M32.35,87.09 C30.46,80.7 29.25,73.41 29.12,65.48 L51.51,65.48 L51.51,87.09 L32.35,87.09 Z M54.78,113.49 L54.78,90.37 L72.66,90.37 C71.5,93.58 70.14,96.65 68.58,99.52 C64.41,107.17 59.17,112.4 54.78,113.49 L54.78,113.49 Z M54.78,87.09 L54.78,65.48 L77.17,65.48 C77.03,72.92 75.86,80.28 73.77,87.09 L54.78,87.09 L54.78,87.09 Z M25.84,65.48 C25.97,73.22 27.12,80.54 28.99,87.09 L9.05,87.09 C5.51286376,80.4184647 3.54619006,73.0271919 3.3,65.48 L25.85,65.48 L25.84,65.48 L25.84,65.48 Z M10.94,90.37 L30.01,90.37 C33.34,100.34 38.3,108.26 43.59,112.79 C29.87,110.12 18.15,101.81 10.94,90.37 Z M62.48,112.83 C67.76,108.28 72.74,100.29 76.13,90.37 L95.37,90.37 C88.12,101.87 76.3,110.2 62.49,112.83 L62.48,112.83 Z M97.25,87.09 L77.16,87.09 C79.1,80.48 80.3,73.14 80.45,65.48 L102.99,65.48 C102.748632,73.0279019 100.781674,80.4202453 97.24,87.09 L97.25,87.09 Z" id="Shape" fill="#000000"></path>
            <polygon id="Path" fill="#00FF00" points="64.11 62.2 104.61 47.33 101.9 39.95 64.68 53.62 91.32 17.89 85.02 13.2 57.29 50.39 57.29 0 49.43 0 49.43 51.03 21.71 13.22 15.37 17.87 41.43 53.4 4.33 39.77 1.62 47.15 42.6 62.2"></polygon>
        </g>
    </g>
</svg>