<svg xmlns="http://www.w3.org/2000/svg">
  <defs>
    <symbol id="storage" viewBox="0 -960 960 960">
      <path d="M120-160v-160h720v160H120Zm80-40h80v-80h-80v80Zm-80-440v-160h720v160H120Zm80-40h80v-80h-80v80Zm-80 280v-160h720v160H120Zm80-40h80v-80h-80v80Z"/>
    </symbol>
    <symbol id="cell-tower" viewBox="0 -960 960 960">
      <path d="M196-276q-57-60-86.5-133T80-560q0-78 29.5-151T196-844l48 48q-48 48-72 110.5T148-560q0 63 24 125.5T244-324l-48 48Zm96-96q-39-39-59.5-88T212-560q0-51 20.5-100t59.5-88l48 48q-30 27-45 64t-15 76q0 36 15 73t45 67l-48 48ZM280-80l135-405q-16-14-25.5-33t-9.5-42q0-42 29-71t71-29q42 0 71 29t29 71q0 23-9.5 42T545-485L680-80h-80l-26-80H387l-27 80h-80Zm133-160h134l-67-200-67 200Zm255-132-48-48q30-27 45-64t15-76q0-36-15-73t-45-67l48-48q39 39 58 88t22 100q0 51-20.5 100T668-372Zm96 96-48-48q48-48 72-110.5T812-560q0-63-24-125.5T716-796l48-48q57 60 86.5 133T880-560q0 78-28 151t-88 133Z"/>
    </symbol>
    <symbol id="devices" viewBox="0 -960 960 960">
      <path d="M80-160v-120h80v-440q0-33 23.5-56.5T240-800h600v80H240v440h240v120H80Zm520 0q-17 0-28.5-11.5T560-200v-400q0-17 11.5-28.5T600-640h240q17 0 28.5 11.5T880-600v400q0 17-11.5 28.5T840-160H600Zm40-120h160v-280H640v280Zm0 0h160-160Z"/>
    </symbol>
    <symbol id="web" viewBox="0 -960 960 960">
      <path d="M160-160q-33 0-56.5-23.5T80-240v-480q0-33 23.5-56.5T160-800h640q33 0 56.5 23.5T880-720v480q0 33-23.5 56.5T800-160H160Zm0-80h420v-140H160v140Zm500 0h140v-360H660v360ZM160-460h420v-140H160v140Z"/>
    </symbol>
    <symbol id="router" viewBox="0 -960 960 960">
      <path d="M200-120q-33 0-56.5-23.5T120-200v-160q0-33 23.5-56.5T200-440h400v-160h80v160h80q33 0 56.5 23.5T840-360v160q0 33-23.5 56.5T760-120H200Zm0-80h560v-160H200v160Zm80-40q17 0 28.5-11.5T320-280q0-17-11.5-28.5T280-320q-17 0-28.5 11.5T240-280q0 17 11.5 28.5T280-240Zm140 0q17 0 28.5-11.5T460-280q0-17-11.5-28.5T420-320q-17 0-28.5 11.5T380-280q0 17 11.5 28.5T420-240Zm140 0q17 0 28.5-11.5T600-280q0-17-11.5-28.5T560-320q-17 0-28.5 11.5T520-280q0 17 11.5 28.5T560-240Zm10-390-58-58q26-24 58-38t70-14q38 0 70 14t58 38l-58 58q-14-14-31.5-22t-38.5-8q-21 0-38.5 8T570-630ZM470-730l-56-56q44-44 102-69t124-25q66 0 124 25t102 69l-56 56q-33-33-76.5-51.5T640-800q-50 0-93.5 18.5T470-730ZM200-200v-160 160Z"/>
    </symbol>
    <symbol id="groups" viewBox="0 -960 960 960">
      <path d="M0-240v-63q0-43 44-70t116-27q13 0 25 .5t23 2.5q-14 21-21 44t-7 48v65H0Zm240 0v-65q0-32 17.5-58.5T307-410q32-20 76.5-30t96.5-10q53 0 97.5 10t76.5 30q32 20 49 46.5t17 58.5v65H240Zm540 0v-65q0-26-6.5-49T754-397q11-2 22.5-2.5t23.5-.5q72 0 116 26.5t44 70.5v63H780Zm-455-80h311q-10-20-55.5-35T480-370q-55 0-100.5 15T325-320ZM160-440q-33 0-56.5-23.5T80-520q0-34 23.5-57t56.5-23q34 0 57 23t23 57q0 33-23 56.5T160-440Zm640 0q-33 0-56.5-23.5T720-520q0-34 23.5-57t56.5-23q34 0 57 23t23 57q0 33-23 56.5T800-440Zm-320-40q-50 0-85-35t-35-85q0-51 35-85.5t85-34.5q51 0 85.5 34.5T600-600q0 50-34.5 85T480-480Zm0-80q17 0 28.5-11.5T520-600q0-17-11.5-28.5T480-640q-17 0-28.5 11.5T440-600q0 17 11.5 28.5T480-560Zm1 240Zm-1-280Z"/>
    </symbol>
    <symbol id="domain" viewBox="0 -960 960 960">
      <path d="M80-120v-720h400v160h400v560H80Zm80-80h80v-80h-80v80Zm0-160h80v-80h-80v80Zm0-160h80v-80h-80v80Zm0-160h80v-80h-80v80Zm160 480h80v-80h-80v80Zm0-160h80v-80h-80v80Zm0-160h80v-80h-80v80Zm0-160h80v-80h-80v80Zm160 480h320v-400H480v80h80v80h-80v80h80v80h-80v80Zm160-240v-80h80v80h-80Zm0 160v-80h80v80h-80Z"/>
    </symbol>
    <symbol id="commute" viewBox="0 -960 960 960">
      <path d="M400-186v-228l56-160q5-11 14.5-18.5T494-600h292q14 0 24 7.5t14 18.5l56 160v228q0 11-7.5 18.5T854-160h-28q-11 0-18.5-7.5T800-186v-34H480v34q0 11-7.5 18.5T454-160h-28q-11 0-18.5-7.5T400-186Zm80-274h320l-28-80H508l-28 80Zm-20 60v120-120Zm60 100q17 0 28.5-11.5T560-340q0-17-11.5-28.5T520-380q-17 0-28.5 11.5T480-340q0 17 11.5 28.5T520-300Zm240 0q17 0 28.5-11.5T800-340q0-17-11.5-28.5T760-380q-17 0-28.5 11.5T720-340q0 17 11.5 28.5T760-300ZM160-160v-40l40-40q-50 0-85-35t-35-85v-320q0-66 59-93t201-27q148 0 204 26t56 94v40h-80v-40H160v240h200v280H160Zm40-160q17 0 28.5-11.5T240-360q0-17-11.5-28.5T200-400q-17 0-28.5 11.5T160-360q0 17 11.5 28.5T200-320Zm260 40h360v-120H460v120Z"/>
    </symbol>
    <symbol id="cloud" viewBox="0 -960 960 960">
      <path d="M260-160q-91 0-155.5-63T40-377q0-78 47-139t123-78q25-92 100-149t170-57q117 0 198.5 81.5T760-520q69 8 114.5 59.5T920-340q0 75-52.5 127.5T740-160H260Zm0-80h480q42 0 71-29t29-71q0-42-29-71t-71-29h-60v-80q0-83-58.5-141.5T480-720q-83 0-141.5 58.5T280-520h-20q-58 0-99 41t-41 99q0 58 41 99t99 41Zm220-240Z"/>
    </symbol>
    <symbol id="experiment" viewBox="0 -960 960 960">
      <path d="M200-120q-51 0-72.5-45.5T138-250l222-270v-240h-40q-17 0-28.5-11.5T280-800q0-17 11.5-28.5T320-840h320q17 0 28.5 11.5T680-800q0 17-11.5 28.5T640-760h-40v240l222 270q32 39 10.5 84.5T760-120H200Zm80-120h400L544-400H416L280-240Zm-80 40h560L520-492v-268h-80v268L200-200Zm280-280Z"/>
    </symbol>
    <symbol id="bolt" viewBox="0 -960 960 960">
      <path d="m422-232 207-248H469l29-227-185 267h139l-30 208ZM320-80l40-280H160l360-520h80l-40 320h240L400-80h-80Zm151-390Z"/>
    </symbol>
    <symbol id="tcs-logo" viewBox="0 0 600 600">
      <path d="M0 0h1280v800H0z" style="fill:none" transform="scale(.46875 .75)"/><path d="M224.612 251.294c.423 4.871.917 8.33.988 11.788.847 37.059.847 36.989 34.518 50.471 59.435 23.859 118.588 48.282 178.376 71.153 14.118 5.506 13.553 14.541 14.118 25.976.564 11.436-2.471 18.636-14.965 23.436-66.071 25.764-131.718 52.941-197.647 78.847a39.895 39.895 0 0 1-26.4 0c-66.988-25.694-133.2-53.012-199.482-79.483C4.871 429.812 0 425.506.353 414.635c.847-21.176 0-42.353.706-63.529a21.185 21.185 0 0 1 9.035-15.812c68.965-28.235 138.141-55.835 207.53-83.506a26.953 26.953 0 0 1 6.988-.494ZM.353 195.388c0-27.6 0-53.364.353-79.059a14.126 14.126 0 0 1 7.059-10.588C78.635 76.659 150 48.071 225.882 17.647c0 14.118.847 24.565 0 35.294-1.341 12.847 4.377 18.706 15.883 23.224 61.764 24.282 123.247 49.411 184.87 73.976 28.236 11.506 28.236 11.435 24.565 45.318-5.012-1.624-9.882-2.824-14.118-4.659-66.141-26.471-131.364-53.153-197.082-78.776a41.715 41.715 0 0 0-28.235 0c-65.153 25.27-129.883 51.6-194.824 77.647-4.447 1.835-9.388 3.247-16.588 5.717Z" style="fill-rule:nonzero" transform="matrix(1 0 0 1 73.343 33.57)"/><path d="M.353 310.941c0-28.235 0-54 .423-79.765a15.542 15.542 0 0 1 8.683-11.082c70.588-28.87 141.176-57.176 216.212-87.176 0 13.27.776 24.07 0 34.729-1.2 12.565 3.67 18.777 15.458 23.365 61.836 24.212 123.247 49.412 184.8 74.047 29.295 11.717 29.365 11.647 24.918 46.376l-90.212-35.788c-39.176-15.812-78.282-31.2-117.459-47.788a41.948 41.948 0 0 0-35.294 0c-63.529 26.117-127.058 51.459-191.153 77.012-4.094 2.188-8.541 3.317-16.376 6.07Z" style="fill-rule:nonzero" transform="matrix(1 0 0 1 73.343 33.57)"/>
    </symbol>
    <symbol id="close" viewBox="0 -960 960 960">
      <path d="m256-200-56-56 224-224-224-224 56-56 224 224 224-224 56 56-224 224 224 224-56 56-224-224-224 224Z"/>
    </symbol>
    <symbol id="menu" viewBox="0 -960 960 960">
      <path d="M120-240v-80h720v80H120Zm0-200v-80h720v80H120Zm0-200v-80h720v80H120Z"/>
    </symbol>
    <symbol id="open-in-new" viewBox="0 -960 960 960">
      <path d="M200-120q-33 0-56.5-23.5T120-200v-560q0-33 23.5-56.5T200-840h280v80H200v560h560v-280h80v280q0 33-23.5 56.5T760-120H200Zm188-212-56-56 372-372H560v-80h280v280h-80v-144L388-332Z"/>
    </symbol>
    <symbol id="hub" viewBox="0 -960 960 960">
      <path d="M240-40q-50 0-85-35t-35-85q0-50 35-85t85-35q14 0 26 3t23 8l57-71q-28-31-39-70t-5-78l-81-27q-17 25-43 40t-58 15q-50 0-85-35T0-580q0-50 35-85t85-35q50 0 85 35t35 85v8l81 28q20-36 53.5-61t75.5-32v-87q-39-11-64.5-42.5T360-840q0-50 35-85t85-35q50 0 85 35t35 85q0 42-26 73.5T510-724v87q42 7 75.5 32t53.5 61l81-28v-8q0-50 35-85t85-35q50 0 85 35t35 85q0 50-35 85t-85 35q-32 0-58.5-15T739-515l-81 27q6 39-5 77.5T614-340l57 70q11-5 23-7.5t26-2.5q50 0 85 35t35 85q0 50-35 85t-85 35q-50 0-85-35t-35-85q0-20 6.5-38.5T624-232l-57-71q-41 23-87.5 23T392-303l-56 71q11 15 17.5 33.5T360-160q0 50-35 85t-85 35ZM120-540q17 0 28.5-11.5T160-580q0-17-11.5-28.5T120-620q-17 0-28.5 11.5T80-580q0 17 11.5 28.5T120-540Zm120 420q17 0 28.5-11.5T280-160q0-17-11.5-28.5T240-200q-17 0-28.5 11.5T200-160q0 17 11.5 28.5T240-120Zm240-680q17 0 28.5-11.5T520-840q0-17-11.5-28.5T480-880q-17 0-28.5 11.5T440-840q0 17 11.5 28.5T480-800Zm0 440q42 0 71-29t29-71q0-42-29-71t-71-29q-42 0-71 29t-29 71q0 42 29 71t71 29Zm240 240q17 0 28.5-11.5T760-160q0-17-11.5-28.5T720-200q-17 0-28.5 11.5T680-160q0 17 11.5 28.5T720-120Zm120-420q17 0 28.5-11.5T880-580q0-17-11.5-28.5T840-620q-17 0-28.5 11.5T800-580q0 17 11.5 28.5T840-540ZM480-840ZM120-580Zm360 120Zm360-120ZM240-160Zm480 0Z"/>
    </symbol>
  </defs>
</svg>