<svg xmlns="http://www.w3.org/2000/svg">
  <defs>
    <symbol id="storage" viewBox="0 -960 960 960">
      <path d="M120-160v-160h720v160H120Zm80-40h80v-80h-80v80Zm-80-440v-160h720v160H120Zm80-40h80v-80h-80v80Zm-80 280v-160h720v160H120Zm80-40h80v-80h-80v80Z"/>
    </symbol>
    <symbol id="cell-tower" viewBox="0 -960 960 960">
      <path d="M196-276q-57-60-86.5-133T80-560q0-78 29.5-151T196-844l48 48q-48 48-72 110.5T148-560q0 63 24 125.5T244-324l-48 48Zm96-96q-39-39-59.5-88T212-560q0-51 20.5-100t59.5-88l48 48q-30 27-45 64t-15 76q0 36 15 73t45 67l-48 48ZM280-80l135-405q-16-14-25.5-33t-9.5-42q0-42 29-71t71-29q42 0 71 29t29 71q0 23-9.5 42T545-485L680-80h-80l-26-80H387l-27 80h-80Zm133-160h134l-67-200-67 200Zm255-132-48-48q30-27 45-64t15-76q0-36-15-73t-45-67l48-48q39 39 58 88t22 100q0 51-20.5 100T668-372Zm96 96-48-48q48-48 72-110.5T812-560q0-63-24-125.5T716-796l48-48q57 60 86.5 133T880-560q0 78-28 151t-88 133Z"/>
    </symbol>
    <symbol id="devices" viewBox="0 -960 960 960">
      <path d="M80-160v-120h80v-440q0-33 23.5-56.5T240-800h600v80H240v440h240v120H80Zm520 0q-17 0-28.5-11.5T560-200v-400q0-17 11.5-28.5T600-640h240q17 0 28.5 11.5T880-600v400q0 17-11.5 28.5T840-160H600Zm40-120h160v-280H640v280Zm0 0h160-160Z"/>
    </symbol>
    <symbol id="web" viewBox="0 -960 960 960">
      <path d="M160-160q-33 0-56.5-23.5T80-240v-480q0-33 23.5-56.5T160-800h640q33 0 56.5 23.5T880-720v480q0 33-23.5 56.5T800-160H160Zm0-80h420v-140H160v140Zm500 0h140v-360H660v360ZM160-460h420v-140H160v140Z"/>
    </symbol>
    <symbol id="router" viewBox="0 -960 960 960">
      <path d="M200-120q-33 0-56.5-23.5T120-200v-160q0-33 23.5-56.5T200-440h400v-160h80v160h80q33 0 56.5 23.5T840-360v160q0 33-23.5 56.5T760-120H200Zm0-80h560v-160H200v160Zm80-40q17 0 28.5-11.5T320-280q0-17-11.5-28.5T280-320q-17 0-28.5 11.5T240-280q0 17 11.5 28.5T280-240Zm140 0q17 0 28.5-11.5T460-280q0-17-11.5-28.5T420-320q-17 0-28.5 11.5T380-280q0 17 11.5 28.5T420-240Zm140 0q17 0 28.5-11.5T600-280q0-17-11.5-28.5T560-320q-17 0-28.5 11.5T520-280q0 17 11.5 28.5T560-240Zm10-390-58-58q26-24 58-38t70-14q38 0 70 14t58 38l-58 58q-14-14-31.5-22t-38.5-8q-21 0-38.5 8T570-630ZM470-730l-56-56q44-44 102-69t124-25q66 0 124 25t102 69l-56 56q-33-33-76.5-51.5T640-800q-50 0-93.5 18.5T470-730ZM200-200v-160 160Z"/>
    </symbol>
    <symbol id="groups" viewBox="0 -960 960 960">
      <path d="M0-240v-63q0-43 44-70t116-27q13 0 25 .5t23 2.5q-14 21-21 44t-7 48v65H0Zm240 0v-65q0-32 17.5-58.5T307-410q32-20 76.5-30t96.5-10q53 0 97.5 10t76.5 30q32 20 49 46.5t17 58.5v65H240Zm540 0v-65q0-26-6.5-49T754-397q11-2 22.5-2.5t23.5-.5q72 0 116 26.5t44 70.5v63H780Zm-455-80h311q-10-20-55.5-35T480-370q-55 0-100.5 15T325-320ZM160-440q-33 0-56.5-23.5T80-520q0-34 23.5-57t56.5-23q34 0 57 23t23 57q0 33-23 56.5T160-440Zm640 0q-33 0-56.5-23.5T720-520q0-34 23.5-57t56.5-23q34 0 57 23t23 57q0 33-23 56.5T800-440Zm-320-40q-50 0-85-35t-35-85q0-51 35-85.5t85-34.5q51 0 85.5 34.5T600-600q0 50-34.5 85T480-480Zm0-80q17 0 28.5-11.5T520-600q0-17-11.5-28.5T480-640q-17 0-28.5 11.5T440-600q0 17 11.5 28.5T480-560Zm1 240Zm-1-280Z"/>
    </symbol>
    <symbol id="domain" viewBox="0 -960 960 960">
      <path d="M80-120v-720h400v160h400v560H80Zm80-80h80v-80h-80v80Zm0-160h80v-80h-80v80Zm0-160h80v-80h-80v80Zm0-160h80v-80h-80v80Zm160 480h80v-80h-80v80Zm0-160h80v-80h-80v80Zm0-160h80v-80h-80v80Zm0-160h80v-80h-80v80Zm160 480h320v-400H480v80h80v80h-80v80h80v80h-80v80Zm160-240v-80h80v80h-80Zm0 160v-80h80v80h-80Z"/>
    </symbol>
    <symbol id="commute" viewBox="0 -960 960 960">
      <path d="M400-186v-228l56-160q5-11 14.5-18.5T494-600h292q14 0 24 7.5t14 18.5l56 160v228q0 11-7.5 18.5T854-160h-28q-11 0-18.5-7.5T800-186v-34H480v34q0 11-7.5 18.5T454-160h-28q-11 0-18.5-7.5T400-186Zm80-274h320l-28-80H508l-28 80Zm-20 60v120-120Zm60 100q17 0 28.5-11.5T560-340q0-17-11.5-28.5T520-380q-17 0-28.5 11.5T480-340q0 17 11.5 28.5T520-300Zm240 0q17 0 28.5-11.5T800-340q0-17-11.5-28.5T760-380q-17 0-28.5 11.5T720-340q0 17 11.5 28.5T760-300ZM160-160v-40l40-40q-50 0-85-35t-35-85v-320q0-66 59-93t201-27q148 0 204 26t56 94v40h-80v-40H160v240h200v280H160Zm40-160q17 0 28.5-11.5T240-360q0-17-11.5-28.5T200-400q-17 0-28.5 11.5T160-360q0 17 11.5 28.5T200-320Zm260 40h360v-120H460v120Z"/>
    </symbol>
    <symbol id="cloud" viewBox="0 -960 960 960">
      <path d="M260-160q-91 0-155.5-63T40-377q0-78 47-139t123-78q25-92 100-149t170-57q117 0 198.5 81.5T760-520q69 8 114.5 59.5T920-340q0 75-52.5 127.5T740-160H260Zm0-80h480q42 0 71-29t29-71q0-42-29-71t-71-29h-60v-80q0-83-58.5-141.5T480-720q-83 0-141.5 58.5T280-520h-20q-58 0-99 41t-41 99q0 58 41 99t99 41Zm220-240Z"/>
    </symbol>
    <symbol id="experiment" viewBox="0 -960 960 960">
      <path d="M200-120q-51 0-72.5-45.5T138-250l222-270v-240h-40q-17 0-28.5-11.5T280-800q0-17 11.5-28.5T320-840h320q17 0 28.5 11.5T680-800q0 17-11.5 28.5T640-760h-40v240l222 270q32 39 10.5 84.5T760-120H200Zm80-120h400L544-400H416L280-240Zm-80 40h560L520-492v-268h-80v268L200-200Zm280-280Z"/>
    </symbol>
  </defs>
</svg>